{
	"asset":{
		"version":"2.0",
		"generator":"Created using the official Cinema 4D glTF Exporter 1.000x284978"
	},
	"scenes":[{
		"nodes":[0]
	}],
	"materials":[{
		"alphaMode":"OPAQUE",
		"pbrMetallicRoughness":{
			"baseColorFactor":[0.5166666666666666,
			0.0,
			1.0,
			1.0],
			"metallicFactor":0.0,
			"roughnessFactor":0.5
		},
		"emissiveFactor":[0.0,
		0.0,
		0.0],
		"doubleSided":true,
		"name":"Mat"
	},
	{
		"alphaMode":"OPAQUE",
		"pbrMetallicRoughness":{
			"baseColorFactor":[1.0,
			1.0,
			1.0,
			1.0],
			"metallicFactor":0.0,
			"roughnessFactor":0.21
		},
		"emissiveFactor":[0.0,
		0.0,
		0.0],
		"doubleSided":true,
		"name":"Mat.1"
	}],
	"nodes":[{
		"name":"Sweep",
		"translation":[8.262372970581055,
		1.750659704208374,
		0.5278050899505615],
		"rotation":[0.0,
		0.0,
		0.0,
		-1.0],
		"scale":[1.0,
		1.0,
		1.0],
		"children":[1,
		2]
	},
	{
		"name":"Sweep-Mat",
		"mesh":0
	},
	{
		"name":"Sweep-Mat.1",
		"mesh":1
	}],
	"meshes":[{
		"name":"Sweep-Mat",
		"primitives":[{
			"attributes":{
				"POSITION":1,
				"NORMAL":2,
				"TEXCOORD_0":3
			},
			"indices":0,
			"material":0
		}]
	},
	{
		"name":"Sweep-Mat.1",
		"primitives":[{
			"attributes":{
				"POSITION":5,
				"NORMAL":6,
				"TEXCOORD_0":7
			},
			"indices":4,
			"material":1
		}]
	}],
	"accessors":[{
		"min":[0],
		"bufferView":0,
		"type":"SCALAR",
		"componentType":5123,
		"count":2964,
		"byteOffset":0,
		"max":[1191]
	},
	{
		"min":[-8.262372970581055,
		-1.750659704208374,
		-0.5278050899505615],
		"bufferView":1,
		"type":"VEC3",
		"componentType":5126,
		"count":1192,
		"byteOffset":0,
		"max":[26.062904357910158,
		6.010451316833496,
		1.4721949100494385]
	},
	{
		"min":[-1.0,
		-1.0,
		-1.0],
		"bufferView":1,
		"type":"VEC3",
		"componentType":5126,
		"count":1192,
		"byteOffset":12,
		"max":[1.0,
		1.0,
		1.0]
	},
	{
		"min":[0.0,
		0.0],
		"bufferView":1,
		"type":"VEC2",
		"componentType":5126,
		"count":1192,
		"byteOffset":24,
		"max":[1.0,
		1.0]
	},
	{
		"min":[0],
		"bufferView":2,
		"type":"SCALAR",
		"componentType":5123,
		"count":6048,
		"byteOffset":0,
		"max":[2523]
	},
	{
		"min":[-8.404180526733399,
		-1.8050085306167603,
		-0.6101410984992981],
		"bufferView":3,
		"type":"VEC3",
		"componentType":5126,
		"count":2524,
		"byteOffset":0,
		"max":[26.029794692993165,
		6.064800262451172,
		1.665751338005066]
	},
	{
		"min":[-1.0,
		-1.0,
		-1.0],
		"bufferView":3,
		"type":"VEC3",
		"componentType":5126,
		"count":2524,
		"byteOffset":12,
		"max":[1.0,
		1.0,
		1.0]
	},
	{
		"min":[0.0,
		0.0],
		"bufferView":3,
		"type":"VEC2",
		"componentType":5126,
		"count":2524,
		"byteOffset":24,
		"max":[1.0,
		1.0]
	}],
	"bufferViews":[{
		"buffer":0,
		"byteOffset":0,
		"byteLength":5928,
		"target":34963
	},
	{
		"buffer":0,
		"byteOffset":5928,
		"byteLength":38144,
		"target":34962,
		"byteStride":32
	},
	{
		"buffer":1,
		"byteOffset":0,
		"byteLength":12096,
		"target":34963
	},
	{
		"buffer":1,
		"byteOffset":12096,
		"byteLength":80768,
		"target":34962,
		"byteStride":32
	}],
	"buffers":[{
		"uri":"data:application/octet-stream;base64,",
		"byteLength":44072
	},
	{
		"uri":"data:application/octet-stream;base64,",
		"byteLength":92864
	}]
}