{
	"asset":{
		"version":"2.0",
		"generator":"Created using the official Cinema 4D glTF Exporter 1.000x284978"
	},
	"scenes":[{
		"nodes":[0]
	}],
	"nodes":[{
		"name":"fo",
		"translation":[0.0,
		-84.53298950195313,
		897.5611572265625],
		"rotation":[0.0,
		0.0,
		0.0,
		-1.0],
		"scale":[1.0,
		1.0,
		1.0],
		"children":[1,
		2,
		3,
		4,
		5]
	},
	{
		"name":"fo",
		"mesh":0
	},
	{
		"name":"fo-Mat",
		"mesh":1
	},
	{
		"name":"fo-Mat.1",
		"mesh":2
	},
	{
		"name":"fo-Mat.3",
		"mesh":3
	},
	{
		"name":"fo-Mat.2",
		"mesh":4
	}],
	"meshes":[{
		"name":"fo",
		"primitives":[{
			"attributes":{
				"POSITION":1,
				"NORMAL":2,
				"TEXCOORD_0":3
			},
			"indices":0
		}]
	},
	{
		"name":"fo-Mat",
		"primitives":[{
			"attributes":{
				"POSITION":5,
				"NORMAL":6,
				"TEXCOORD_0":7
			},
			"indices":4,
			"material":0
		}]
	},
	{
		"name":"fo-Mat.1",
		"primitives":[{
			"attributes":{
				"POSITION":9,
				"NORMAL":10,
				"TEXCOORD_0":11
			},
			"indices":8,
			"material":1
		}]
	},
	{
		"name":"fo-Mat.3",
		"primitives":[{
			"attributes":{
				"POSITION":13,
				"NORMAL":14,
				"TEXCOORD_0":15
			},
			"indices":12,
			"material":2
		}]
	},
	{
		"name":"fo-Mat.2",
		"primitives":[{
			"attributes":{
				"POSITION":17,
				"NORMAL":18,
				"TEXCOORD_0":19
			},
			"indices":16,
			"material":3
		}]
	}],
	"accessors":[{
		"bufferView":0,
		"type":"SCALAR",
		"componentType":5123,
		"count":3072,
		"byteOffset":0,
		"min":[0],
		"max":[560]
	},
	{
		"bufferView":1,
		"type":"VEC3",
		"componentType":5126,
		"count":561,
		"byteOffset":0,
		"min":[-381.5093994140625,
		41.338279724121097,
		-381.5093994140625],
		"max":[381.5093994140625,
		85.26470947265625,
		381.5093994140625]
	},
	{
		"bufferView":1,
		"type":"VEC3",
		"componentType":5126,
		"count":561,
		"byteOffset":12,
		"min":[-1.0,
		-1.0,
		-1.0],
		"max":[1.0,
		1.0,
		1.0]
	},
	{
		"bufferView":1,
		"type":"VEC2",
		"componentType":5126,
		"count":561,
		"byteOffset":24,
		"min":[0.0,
		0.0],
		"max":[1.0,
		1.0]
	},
	{
		"bufferView":2,
		"type":"SCALAR",
		"componentType":5123,
		"count":522,
		"byteOffset":0,
		"min":[0],
		"max":[117]
	},
	{
		"bufferView":3,
		"type":"VEC3",
		"componentType":5126,
		"count":118,
		"byteOffset":0,
		"min":[-361.6747741699219,
		-197.9726104736328,
		-361.6747741699219],
		"max":[361.6747741699219,
		419.4448547363281,
		361.6747741699219]
	},
	{
		"bufferView":3,
		"type":"VEC3",
		"componentType":5126,
		"count":118,
		"byteOffset":12,
		"min":[-1.0,
		-0.5555312633514404,
		-1.0],
		"max":[1.0,
		1.0,
		1.0]
	},
	{
		"bufferView":3,
		"type":"VEC2",
		"componentType":5126,
		"count":118,
		"byteOffset":24,
		"min":[0.0,
		0.0],
		"max":[1.0,
		0.75]
	},
	{
		"bufferView":4,
		"type":"SCALAR",
		"componentType":5123,
		"count":768,
		"byteOffset":0,
		"min":[0],
		"max":[202]
	},
	{
		"bufferView":5,
		"type":"VEC3",
		"componentType":5126,
		"count":203,
		"byteOffset":0,
		"min":[-656.6039428710938,
		-249.45468139648438,
		-656.6039428710938],
		"max":[656.6039428710938,
		76.7955093383789,
		656.6039428710938]
	},
	{
		"bufferView":5,
		"type":"VEC3",
		"componentType":5126,
		"count":203,
		"byteOffset":12,
		"min":[-0.9999688267707825,
		-0.9999688267707825,
		-0.9999688267707825],
		"max":[0.9999688267707825,
		1.0,
		0.9999688267707825]
	},
	{
		"bufferView":5,
		"type":"VEC2",
		"componentType":5126,
		"count":203,
		"byteOffset":24,
		"min":[0.0,
		0.0],
		"max":[1.0,
		1.0]
	},
	{
		"bufferView":6,
		"type":"SCALAR",
		"componentType":5123,
		"count":3072,
		"byteOffset":0,
		"min":[0],
		"max":[560]
	},
	{
		"bufferView":7,
		"type":"VEC3",
		"componentType":5126,
		"count":561,
		"byteOffset":0,
		"min":[-471.0600891113281,
		-208.0233612060547,
		-471.0600891113281],
		"max":[471.0600891113281,
		68.76793670654297,
		471.0600891113281]
	},
	{
		"bufferView":7,
		"type":"VEC3",
		"componentType":5126,
		"count":561,
		"byteOffset":12,
		"min":[-1.0,
		-1.0,
		-1.0],
		"max":[1.0,
		1.0,
		1.0]
	},
	{
		"bufferView":7,
		"type":"VEC2",
		"componentType":5126,
		"count":561,
		"byteOffset":24,
		"min":[0.0,
		0.0],
		"max":[1.0,
		1.0]
	},
	{
		"bufferView":8,
		"type":"SCALAR",
		"componentType":5123,
		"count":10848,
		"byteOffset":0,
		"min":[0],
		"max":[2178]
	},
	{
		"bufferView":9,
		"type":"VEC3",
		"componentType":5126,
		"count":2179,
		"byteOffset":0,
		"min":[-518.1690063476563,
		-249.56277465820313,
		-531.1190795898438],
		"max":[518.1690063476563,
		61.072452545166019,
		481.78326416015627]
	},
	{
		"bufferView":9,
		"type":"VEC3",
		"componentType":5126,
		"count":2179,
		"byteOffset":12,
		"min":[-1.0,
		-1.0,
		-1.0],
		"max":[1.0,
		1.0,
		1.0]
	},
	{
		"bufferView":9,
		"type":"VEC2",
		"componentType":5126,
		"count":2179,
		"byteOffset":24,
		"min":[0.0,
		0.0],
		"max":[1.0,
		1.0]
	}],
	"bufferViews":[{
		"buffer":0,
		"byteOffset":0,
		"byteLength":6144,
		"target":34963
	},
	{
		"buffer":0,
		"byteOffset":6144,
		"byteLength":17952,
		"target":34962,
		"byteStride":32
	},
	{
		"buffer":1,
		"byteOffset":0,
		"byteLength":1044,
		"target":34963
	},
	{
		"buffer":1,
		"byteOffset":1044,
		"byteLength":3776,
		"target":34962,
		"byteStride":32
	},
	{
		"buffer":2,
		"byteOffset":0,
		"byteLength":1536,
		"target":34963
	},
	{
		"buffer":2,
		"byteOffset":1536,
		"byteLength":6496,
		"target":34962,
		"byteStride":32
	},
	{
		"buffer":3,
		"byteOffset":0,
		"byteLength":6144,
		"target":34963
	},
	{
		"buffer":3,
		"byteOffset":6144,
		"byteLength":17952,
		"target":34962,
		"byteStride":32
	},
	{
		"buffer":4,
		"byteOffset":0,
		"byteLength":21696,
		"target":34963
	},
	{
		"buffer":4,
		"byteOffset":21696,
		"byteLength":69728,
		"target":34962,
		"byteStride":32
	}],
	"buffers":[{
		"uri":"data:application/octet-stream;base64,",
		"byteLength":24096
	},
	{
		"uri":"data:application/octet-stream;base64,",
		"byteLength":4820
	},
	{
		"uri":"data:application/octet-stream;base64,",
		"byteLength":8032
	},
	{
		"uri":"data:application/octet-stream;base64,",
		"byteLength":24096
	},
	{
		"uri":"data:application/octet-stream;base64,",
		"byteLength":91424
	}],
	"materials":[{
		"pbrMetallicRoughness":{
			"baseColorFactor":[0.6620000000000005,
			0.8,
			0.6160000000000001,
			1.0],
			"metallicFactor":0.0,
			"roughnessFactor":0.14
		},
		"emissiveFactor":[0.0,
		0.0,
		0.0],
		"alphaMode":"OPAQUE",
		"doubleSided":true,
		"name":"Mat"
	},
	{
		"pbrMetallicRoughness":{
			"baseColorFactor":[0.43,
			0.43,
			0.43,
			1.0],
			"metallicFactor":0.0,
			"roughnessFactor":0.18
		},
		"emissiveFactor":[0.0,
		0.0,
		0.0],
		"alphaMode":"OPAQUE",
		"doubleSided":true,
		"name":"Mat.1"
	},
	{
		"pbrMetallicRoughness":{
			"baseColorFactor":[0.0,
			0.0,
			0.0,
			1.0],
			"metallicFactor":0.0,
			"roughnessFactor":0.18
		},
		"emissiveFactor":[0.0,
		0.0,
		0.0],
		"alphaMode":"OPAQUE",
		"doubleSided":true,
		"name":"Mat.3"
	},
	{
		"pbrMetallicRoughness":{
			"baseColorFactor":[0.5999999999999997,
			0.0,
			1.0,
			1.0],
			"metallicFactor":0.0,
			"roughnessFactor":0.5
		},
		"emissiveFactor":[0.0,
		0.0,
		0.0],
		"alphaMode":"OPAQUE",
		"doubleSided":true,
		"name":"Mat.2"
	}]
}